REM DIRINDEX 1\2,1\3,1\4,1\5
REM DIRNAME folder01,folder02,folder03,folder04,folder05
TITLE ""
FILE "1Q_t_1799-1808.mp3" MP3
  TRACK 01 AUDIO
    TITLE "3:cjc004_6304"
    INDEX 01 00:00:00
  TRACK 02 AUDIO
    TITLE "0:"
    INDEX 01 00:01:05
  TRACK 03 AUDIO
    TITLE "4:cjc004_6305"
    INDEX 01 00:01:30
  TRACK 04 AUDIO
    TITLE "0:"
    INDEX 01 00:02:43
  TRACK 05 AUDIO
    TITLE "5:cjc004_6306"
    INDEX 01 00:02:73
  TRACK 06 AUDIO
    TITLE "0:"
    INDEX 01 00:07:07
  TRACK 07 AUDIO
    TITLE "3:cjc004_6307"
    INDEX 01 00:07:60
  TRACK 08 AUDIO
    TITLE "0:"
    INDEX 01 00:08:68
  TRACK 09 AUDIO
    TITLE "4:cjc004_6308"
    INDEX 01 00:09:24
  TRACK 10 AUDIO
    TITLE "0:"
    INDEX 01 00:10:37
  TRACK 11 AUDIO
    TITLE "5:cjc004_6309"
    INDEX 01 00:10:63
  TRACK 12 AUDIO
    TITLE "0:"
    INDEX 01 00:16:02
  TRACK 13 AUDIO
    TITLE "3:cjc004_6310"
    INDEX 01 00:16:55
  TRACK 14 AUDIO
    TITLE "0:"
    INDEX 01 00:17:70
  TRACK 15 AUDIO
    TITLE "4:cjc004_6311"
    INDEX 01 00:18:29
  TRACK 16 AUDIO
    TITLE "0:"
    INDEX 01 00:19:34
  TRACK 17 AUDIO
    TITLE "5:cjc004_6312"
    INDEX 01 00:19:60
  TRACK 18 AUDIO
    TITLE "0:"
    INDEX 01 00:24:04
  TRACK 19 AUDIO
    TITLE "3:cjc004_6313"
    INDEX 01 00:24:57
  TRACK 20 AUDIO
    TITLE "0:"
    INDEX 01 00:26:07
  TRACK 21 AUDIO
    TITLE "4:cjc004_6314"
    INDEX 01 00:26:34
  TRACK 22 AUDIO
    TITLE "0:"
    INDEX 01 00:27:34
  TRACK 23 AUDIO
    TITLE "5:cjc004_6315"
    INDEX 01 00:27:61
  TRACK 24 AUDIO
    TITLE "0:"
    INDEX 01 00:32:19
  TRACK 25 AUDIO
    TITLE "3:cjc004_6316"
    INDEX 01 00:32:74
  TRACK 26 AUDIO
    TITLE "0:"
    INDEX 01 00:34:08
  TRACK 27 AUDIO
    TITLE "4:cjc004_6317"
    INDEX 01 00:34:42
  TRACK 28 AUDIO
    TITLE "0:"
    INDEX 01 00:35:55
  TRACK 29 AUDIO
    TITLE "5:cjc004_6318"
    INDEX 01 00:36:03
  TRACK 30 AUDIO
    TITLE "0:"
    INDEX 01 00:39:64
  TRACK 31 AUDIO
    TITLE "3:cjc004_6319"
    INDEX 01 00:40:48
  TRACK 32 AUDIO
    TITLE "0:"
    INDEX 01 00:41:47
  TRACK 33 AUDIO
    TITLE "4:cjc004_6320"
    INDEX 01 00:41:73
  TRACK 34 AUDIO
    TITLE "0:"
    INDEX 01 00:43:19
  TRACK 35 AUDIO
    TITLE "5:cjc004_6321"
    INDEX 01 00:43:42
  TRACK 36 AUDIO
    TITLE "0:"
    INDEX 01 00:47:72
  TRACK 37 AUDIO
    TITLE "3:cjc004_6322"
    INDEX 01 00:48:49
  TRACK 38 AUDIO
    TITLE "0:"
    INDEX 01 00:49:65
  TRACK 39 AUDIO
    TITLE "4:cjc004_6323"
    INDEX 01 00:50:21
  TRACK 40 AUDIO
    TITLE "0:"
    INDEX 01 00:51:22
  TRACK 41 AUDIO
    TITLE "5:cjc004_6324"
    INDEX 01 00:51:52
  TRACK 42 AUDIO
    TITLE "0:"
    INDEX 01 00:56:25
  TRACK 43 AUDIO
    TITLE "3:cjc004_6325"
    INDEX 01 00:57:07
  TRACK 44 AUDIO
    TITLE "0:"
    INDEX 01 00:58:22
  TRACK 45 AUDIO
    TITLE "4:cjc004_6326"
    INDEX 01 00:58:58
  TRACK 46 AUDIO
    TITLE "0:"
    INDEX 01 00:59:65
  TRACK 47 AUDIO
    TITLE "5:cjc004_6327"
    INDEX 01 01:00:19
  TRACK 48 AUDIO
    TITLE "0:"
    INDEX 01 01:05:01
  TRACK 49 AUDIO
    TITLE "3:cjc004_6328"
    INDEX 01 01:05:50
  TRACK 50 AUDIO
    TITLE "0:"
    INDEX 01 01:06:67
  TRACK 51 AUDIO
    TITLE "4:cjc004_6329"
    INDEX 01 01:07:21
  TRACK 52 AUDIO
    TITLE "0:"
    INDEX 01 01:09:01
  TRACK 53 AUDIO
    TITLE "5:cjc004_6330"
    INDEX 01 01:09:24
  TRACK 54 AUDIO
    TITLE "0:"
    INDEX 01 01:14:04
  TRACK 55 AUDIO
    TITLE "3:cjc004_6331"
    INDEX 01 01:14:59
  TRACK 56 AUDIO
    TITLE "0:"
    INDEX 01 01:15:64
  TRACK 57 AUDIO
    TITLE "4:cjc004_6332"
    INDEX 01 01:16:16
  TRACK 58 AUDIO
    TITLE "0:"
    INDEX 01 01:17:37
  TRACK 59 AUDIO
    TITLE "5:cjc004_6333"
    INDEX 01 01:17:65
  TRACK 60 AUDIO
    TITLE "0:"
    INDEX 01 01:22:13
